<svg width="400" height="400" viewBox="0 0 400 400" fill="none" xmlns="http://www.w3.org/2000/svg">
<path fill-rule="evenodd" clip-rule="evenodd" d="M76.3961 1L189.204 104.894V104.87V1.23973H211.164V105.359L324.477 1V119.454H371V290.313H324.62V395.791L211.164 296.152V396.935H189.204V297.794L76.5239 397V290.313H30V119.454H76.3961V1ZM172.65 141.136H51.9593V268.631H76.4963V228.414L172.65 141.136ZM98.4821 238.035V348.618L189.204 268.745V155.667L98.4821 238.035ZM211.796 267.688V155.56L302.544 237.933V290.313H302.661V347.489L211.796 267.688ZM324.62 268.631H349.041V141.136H229.249L324.62 227.511V268.631ZM302.518 119.454V50.8738L228.052 119.454H302.518ZM172.82 119.454H98.3555V50.8738L172.82 119.454Z" fill="#187D96"/>
</svg>
